# xmcd CD database file
#
# Track frame offsets:
#	150
#	29261
#	56966
#	76266
#	100709
#	121035
#	144776
#	173029
#	194310
#	222535
#	256741
#	281388
#
# Disc length: 4226 seconds
#
# Revision: 0
# Processed by: cddbd v1.5.1PL0 Copyright (c) Steve Scherf et al.
# Submitted via: CDex 1.51
#
DISCID=9d10800c
DTITLE=Cat Anderson - Cat speaks (The definitive black and Blues session)
DYEAR=1977
DGENRE=Jazz
TTITLE0=Good Queen Bess
TTITLE1=The Cat Hums
TTITLE2=Stompy Jones
TTITLE3=The Cat in G-Flat
TTITLE4=The Jeep is Jumpin'
TTITLE5=Baby Won' You Please Come Home
TTITLE6=Black and Tan Fantasy
TTITLE7=Struttin' with some Barbecue
TTITLE8=Cat Speaks
TTITLE9=What Am I Here For
TTITLE10=The Cat in G-Flat (take 1)
TTITLE11=Just Squeeze me
EXTD=YEAR: 1977
EXTT0=
EXTT1=
EXTT2=
EXTT3=
EXTT4=
EXTT5=
EXTT6=
EXTT7=
EXTT8=
EXTT9=
EXTT10=
EXTT11=
PLAYORDER=
